<svg width="173" height="58" viewBox="0 0 173 58" fill="none" xmlns="http://www.w3.org/2000/svg">
<g clip-path="url(#clip0_17_1229)">
<mask id="mask0_17_1229" style="mask-type:luminance" maskUnits="userSpaceOnUse" x="0" y="0" width="174" height="58">
<path d="M173.386 0H0V58H173.386V0Z" fill="white"/>
</mask>
<g mask="url(#mask0_17_1229)">
<path d="M3.66159 48.362C4.3074 47.7021 5.12958 47.3722 6.12725 47.3722C7.46186 47.3722 8.4376 47.8145 9.05533 48.6998C9.39578 49.1965 9.57917 49.6957 9.60462 50.1959H7.92867C7.82162 49.8116 7.68474 49.5211 7.51802 49.3254C7.21968 48.9771 6.77745 48.8034 6.19043 48.8034C5.60341 48.8034 5.12256 49.049 4.77772 49.5404C4.43375 50.0318 4.26089 50.7276 4.26089 51.627C4.26089 52.5264 4.44253 53.2003 4.8058 53.6487C5.16994 54.0971 5.63148 54.3208 6.19218 54.3208C6.75288 54.3208 7.20565 54.1287 7.50749 53.7443C7.67421 53.5372 7.81197 53.2275 7.92253 52.8142H9.58794C9.44404 53.6882 9.07726 54.3998 8.48673 54.9473C7.89708 55.4949 7.14071 55.7686 6.2185 55.7686C5.07781 55.7686 4.18017 55.3992 3.52734 54.6586C2.87451 53.9154 2.5481 52.8958 2.5481 51.6007C2.5481 50.2003 2.91926 49.1219 3.66247 48.3629" fill="#1E120C"/>
<path d="M18.5444 48.9438H14.3011V50.6469H18.197V52.0403H14.3011V54.1024H18.741V55.544H12.6628V47.524H18.5444V48.9438Z" fill="#1E120C"/>
<path d="M21.6907 47.524H23.4473L26.6308 53.1161V47.524H28.1926V55.544H26.5176L23.2525 49.8537V55.544H21.6907V47.524Z" fill="#1E120C"/>
<path d="M37.264 47.524V48.9438H34.8642V55.544H33.1777V48.9438H30.7673V47.524H37.264Z" fill="#1E120C"/>
<path d="M45.0544 47.7311C45.3492 47.8584 45.6002 48.0453 45.8047 48.2918C45.9749 48.4954 46.1091 48.72 46.2083 48.9666C46.3074 49.2132 46.3566 49.4939 46.3566 49.8098C46.3566 50.1906 46.2601 50.5653 46.0679 50.9338C45.8757 51.3015 45.5581 51.5621 45.1158 51.7148C45.4853 51.864 45.7476 52.0746 45.902 52.3483C46.0565 52.6221 46.1337 53.0406 46.1337 53.6022V54.141C46.1337 54.5077 46.1486 54.7561 46.1776 54.8868C46.2223 55.0939 46.325 55.2457 46.4864 55.344V55.5449H44.6368C44.5859 55.3677 44.5499 55.2237 44.5279 55.1149C44.485 54.8903 44.4613 54.6595 44.4578 54.4244L44.4463 53.6785C44.4393 53.167 44.3507 52.8265 44.1814 52.6554C44.0111 52.4852 43.6935 52.3992 43.2267 52.3992H41.5902V55.544H39.9529V47.524H43.7891C44.3375 47.5346 44.7587 47.6039 45.0544 47.7311ZM41.5902 48.9166V51.0716H43.3934C43.7523 51.0716 44.0208 51.0286 44.1998 50.9409C44.5174 50.7882 44.6754 50.4872 44.6754 50.038C44.6754 49.5519 44.5218 49.2254 44.2156 49.0587C44.0436 48.964 43.7847 48.9175 43.4408 48.9175H41.5902V48.9166Z" fill="#1E120C"/>
<path d="M55.8088 54.8315C55.2033 55.4553 54.3267 55.7668 53.1808 55.7668C52.0348 55.7668 51.1582 55.4553 50.5528 54.8315C49.7402 54.0663 49.334 52.9633 49.334 51.5234C49.334 50.0835 49.7402 48.9516 50.5528 48.2154C51.1582 47.5915 52.0348 47.2792 53.1808 47.2792C54.3267 47.2792 55.2024 47.5915 55.8088 48.2154C56.6178 48.9516 57.0223 50.0546 57.0223 51.5234C57.0223 52.9923 56.6178 54.0663 55.8088 54.8315ZM54.7611 53.6127C55.1515 53.123 55.3463 52.4263 55.3463 51.5234C55.3463 50.6205 55.1515 49.9282 54.7611 49.4368C54.3706 48.9455 53.8441 48.6998 53.1808 48.6998C52.5174 48.6998 51.9865 48.9446 51.5917 49.4342C51.1959 49.9238 50.9985 50.6205 50.9985 51.5234C50.9985 52.4263 51.1959 53.123 51.5917 53.6127C51.9874 54.1023 52.5165 54.3471 53.1808 54.3471C53.845 54.3471 54.3706 54.1023 54.7611 53.6127Z" fill="#1E120C"/>
<path d="M64.7399 47.524H66.443V52.4492C66.443 53.0003 66.508 53.4021 66.6378 53.6566C66.8396 54.1059 67.281 54.3305 67.9602 54.3305C68.6393 54.3305 69.0754 54.1059 69.2772 53.6566C69.4071 53.403 69.4729 53.0003 69.4729 52.4492V47.524H71.176V52.4536C71.176 53.3056 71.0436 53.9699 70.7794 54.4446C70.2872 55.315 69.3474 55.7502 67.9602 55.7502C66.5729 55.7502 65.6323 55.315 65.1356 54.4446C64.8715 53.9699 64.739 53.3056 64.739 52.4536V47.524H64.7399Z" fill="#1E120C"/>
<path d="M74.4316 47.524H76.1874L79.3717 53.1161V47.524H80.9327V55.544H79.2577L75.9926 49.8537V55.544H74.4316V47.524Z" fill="#1E120C"/>
<path d="M85.7056 47.524H84.041V55.544H85.7056V47.524Z" fill="#1E120C"/>
<path d="M93.6371 47.524H95.3788L92.6438 55.544H91.0609L88.3486 47.524H90.1386L91.8804 53.6127L93.6371 47.524Z" fill="#1E120C"/>
<path d="M103.979 48.9438H99.7357V50.6469H103.632V52.0403H99.7357V54.1024H104.176V55.544H98.0984V47.524H103.979V48.9438Z" fill="#1E120C"/>
<path d="M112.292 47.7311C112.587 47.8584 112.838 48.0453 113.042 48.2918C113.212 48.4954 113.347 48.72 113.446 48.9666C113.545 49.2132 113.594 49.4939 113.594 49.8098C113.594 50.1906 113.498 50.5653 113.305 50.9338C113.113 51.3015 112.796 51.5621 112.353 51.7148C112.723 51.864 112.985 52.0746 113.14 52.3483C113.294 52.6221 113.371 53.0406 113.371 53.6022V54.141C113.371 54.5077 113.386 54.7561 113.415 54.8868C113.46 55.0939 113.563 55.2457 113.724 55.344V55.5449H111.874C111.823 55.3677 111.787 55.2237 111.765 55.1149C111.723 54.8903 111.699 54.6595 111.695 54.4244L111.684 53.6785C111.677 53.167 111.588 52.8265 111.419 52.6554C111.249 52.4852 110.931 52.3992 110.464 52.3992H108.828V55.544H107.19V47.524H111.027C111.575 47.5346 111.996 47.6039 112.292 47.7311ZM108.828 48.9166V51.0716H110.631C110.99 51.0716 111.258 51.0286 111.437 50.9409C111.755 50.7882 111.913 50.4872 111.913 50.038C111.913 49.5519 111.759 49.2254 111.453 49.0587C111.281 48.964 111.022 48.9175 110.678 48.9175H108.828V48.9166Z" fill="#1E120C"/>
<path d="M118.078 53.0687C118.13 53.4355 118.233 53.7092 118.383 53.89C118.661 54.2199 119.137 54.3849 119.811 54.3849C120.216 54.3849 120.543 54.341 120.795 54.2541C121.273 54.0874 121.512 53.7768 121.512 53.324C121.512 53.059 121.394 52.8546 121.16 52.7089C120.926 52.5676 120.554 52.4422 120.046 52.3334L119.178 52.143C118.325 51.9543 117.738 51.7499 117.419 51.5279C116.879 51.1576 116.608 50.5793 116.608 49.7922C116.608 49.0745 116.872 48.4778 117.402 48.0022C117.931 47.5266 118.707 47.2897 119.731 47.2897C120.587 47.2897 121.317 47.5135 121.92 47.9619C122.524 48.4102 122.841 49.0604 122.871 49.9125H121.26C121.231 49.4299 121.014 49.0876 120.613 48.8841C120.345 48.7498 120.012 48.6831 119.614 48.6831C119.172 48.6831 118.819 48.77 118.555 48.9446C118.29 49.1184 118.159 49.3614 118.159 49.6738C118.159 49.9607 118.289 50.1739 118.548 50.3161C118.716 50.4109 119.071 50.5214 119.614 50.6478L121.021 50.9794C121.638 51.1242 122.1 51.3181 122.408 51.5612C122.887 51.9385 123.126 52.4843 123.126 53.1985C123.126 53.9128 122.843 54.5402 122.276 55.0237C121.709 55.508 120.91 55.7502 119.875 55.7502C118.841 55.7502 117.989 55.5115 117.383 55.0351C116.779 54.5586 116.476 53.9023 116.476 53.0678H118.075L118.078 53.0687Z" fill="#1E120C"/>
<path d="M127.503 47.524H125.839V55.544H127.503V47.524Z" fill="#1E120C"/>
<path d="M136.57 47.524V48.9438H134.17V55.544H132.484V48.9438H130.074V47.524H136.57Z" fill="#1E120C"/>
<path d="M141.513 47.524H143.409L146.247 55.544H144.43L143.901 53.8952H140.947L140.403 55.544H138.65L141.512 47.524H141.513ZM141.403 52.5132H143.457L142.443 49.357L141.403 52.5132ZM144.307 45.2549L142.654 46.8817H141.533L142.578 45.2549H144.307Z" fill="#1E120C"/>
<path d="M154.079 47.7311C154.374 47.8584 154.625 48.0453 154.829 48.2918C154.999 48.4954 155.134 48.72 155.233 48.9666C155.332 49.2132 155.381 49.4939 155.381 49.8098C155.381 50.1906 155.285 50.5653 155.093 50.9338C154.901 51.3015 154.583 51.5621 154.141 51.7148C154.511 51.864 154.773 52.0746 154.927 52.3483C155.082 52.6221 155.159 53.0406 155.159 53.6022V54.141C155.159 54.5077 155.174 54.7561 155.203 54.8868C155.248 55.0939 155.35 55.2457 155.513 55.344V55.5449H153.663C153.612 55.3677 153.576 55.2237 153.554 55.1149C153.511 54.8903 153.488 54.6595 153.484 54.4244L153.473 53.6785C153.466 53.167 153.377 52.8265 153.208 52.6554C153.037 52.4852 152.72 52.3992 152.253 52.3992H150.616V55.544H148.978V47.524H152.815C153.363 47.5346 153.785 47.6039 154.081 47.7311M150.615 48.9166V51.0716H152.418C152.777 51.0716 153.045 51.0286 153.224 50.9409C153.542 50.7882 153.7 50.4872 153.7 50.038C153.7 49.5519 153.546 49.2254 153.24 49.0587C153.068 48.964 152.809 48.9175 152.465 48.9175H150.615V48.9166Z" fill="#1E120C"/>
<path d="M160.186 47.524H158.522V55.544H160.186V47.524Z" fill="#1E120C"/>
<path d="M169.6 54.8315C168.995 55.4553 168.118 55.7668 166.972 55.7668C165.826 55.7668 164.95 55.4553 164.344 54.8315C163.532 54.0663 163.125 52.9633 163.125 51.5234C163.125 50.0835 163.532 48.9516 164.344 48.2154C164.95 47.5915 165.826 47.2792 166.972 47.2792C168.118 47.2792 168.994 47.5915 169.6 48.2154C170.409 48.9516 170.814 50.0546 170.814 51.5234C170.814 52.9923 170.409 54.0663 169.6 54.8315ZM168.553 53.6127C168.943 53.123 169.138 52.4263 169.138 51.5234C169.138 50.6205 168.943 49.9282 168.553 49.4368C168.162 48.9455 167.636 48.6998 166.972 48.6998C166.309 48.6998 165.778 48.9446 165.383 49.4342C164.987 49.9238 164.79 50.6205 164.79 51.5234C164.79 52.4263 164.987 53.123 165.383 53.6127C165.779 54.1023 166.308 54.3471 166.972 54.3471C167.637 54.3471 168.162 54.1023 168.553 53.6127Z" fill="#1E120C"/>
<path d="M3.66159 48.362C4.3074 47.7021 5.12958 47.3722 6.12725 47.3722C7.46186 47.3722 8.4376 47.8145 9.05533 48.6998C9.39578 49.1965 9.57917 49.6957 9.60462 50.1959H7.92867C7.82162 49.8116 7.68474 49.5211 7.51802 49.3254C7.21968 48.9771 6.77745 48.8034 6.19043 48.8034C5.60341 48.8034 5.12256 49.049 4.77772 49.5404C4.43375 50.0318 4.26089 50.7276 4.26089 51.627C4.26089 52.5264 4.44253 53.2003 4.8058 53.6487C5.16994 54.0971 5.63148 54.3208 6.19218 54.3208C6.75288 54.3208 7.20565 54.1287 7.50749 53.7443C7.67421 53.5372 7.81197 53.2275 7.92253 52.8142H9.58794C9.44404 53.6882 9.07726 54.3998 8.48673 54.9473C7.89708 55.4949 7.14071 55.7686 6.2185 55.7686C5.07781 55.7686 4.18017 55.3992 3.52734 54.6586C2.87451 53.9154 2.5481 52.8958 2.5481 51.6007C2.5481 50.2003 2.91926 49.1219 3.66247 48.3629" fill="#1E120C"/>
<path d="M18.5444 48.9438H14.3011V50.6469H18.197V52.0403H14.3011V54.1024H18.741V55.544H12.6628V47.524H18.5444V48.9438Z" fill="#1E120C"/>
<path d="M21.6907 47.524H23.4473L26.6308 53.1161V47.524H28.1926V55.544H26.5176L23.2525 49.8537V55.544H21.6907V47.524Z" fill="#1E120C"/>
<path d="M37.264 47.524V48.9438H34.8642V55.544H33.1777V48.9438H30.7673V47.524H37.264Z" fill="#1E120C"/>
<path d="M45.0544 47.7311C45.3492 47.8584 45.6002 48.0453 45.8047 48.2918C45.9749 48.4954 46.1091 48.72 46.2083 48.9666C46.3074 49.2132 46.3566 49.4939 46.3566 49.8098C46.3566 50.1906 46.2601 50.5653 46.0679 50.9338C45.8757 51.3015 45.5581 51.5621 45.1158 51.7148C45.4853 51.864 45.7476 52.0746 45.902 52.3483C46.0565 52.6221 46.1337 53.0406 46.1337 53.6022V54.141C46.1337 54.5077 46.1486 54.7561 46.1776 54.8868C46.2223 55.0939 46.325 55.2457 46.4864 55.344V55.5449H44.6368C44.5859 55.3677 44.5499 55.2237 44.5279 55.1149C44.485 54.8903 44.4613 54.6595 44.4578 54.4244L44.4463 53.6785C44.4393 53.167 44.3507 52.8265 44.1814 52.6554C44.0111 52.4852 43.6935 52.3992 43.2267 52.3992H41.5902V55.544H39.9529V47.524H43.7891C44.3375 47.5346 44.7587 47.6039 45.0544 47.7311ZM41.5902 48.9166V51.0716H43.3934C43.7523 51.0716 44.0208 51.0286 44.1998 50.9409C44.5174 50.7882 44.6754 50.4872 44.6754 50.038C44.6754 49.5519 44.5218 49.2254 44.2156 49.0587C44.0436 48.964 43.7847 48.9175 43.4408 48.9175H41.5902V48.9166Z" fill="#1E120C"/>
<path d="M55.8088 54.8315C55.2033 55.4553 54.3267 55.7668 53.1808 55.7668C52.0348 55.7668 51.1582 55.4553 50.5528 54.8315C49.7402 54.0663 49.334 52.9633 49.334 51.5234C49.334 50.0835 49.7402 48.9516 50.5528 48.2154C51.1582 47.5915 52.0348 47.2792 53.1808 47.2792C54.3267 47.2792 55.2024 47.5915 55.8088 48.2154C56.6178 48.9516 57.0223 50.0546 57.0223 51.5234C57.0223 52.9923 56.6178 54.0663 55.8088 54.8315ZM54.7611 53.6127C55.1515 53.123 55.3463 52.4263 55.3463 51.5234C55.3463 50.6205 55.1515 49.9282 54.7611 49.4368C54.3706 48.9455 53.8441 48.6998 53.1808 48.6998C52.5174 48.6998 51.9865 48.9446 51.5917 49.4342C51.1959 49.9238 50.9985 50.6205 50.9985 51.5234C50.9985 52.4263 51.1959 53.123 51.5917 53.6127C51.9874 54.1023 52.5165 54.3471 53.1808 54.3471C53.845 54.3471 54.3706 54.1023 54.7611 53.6127Z" fill="#1E120C"/>
<path d="M64.7399 47.524H66.443V52.4492C66.443 53.0003 66.508 53.4021 66.6378 53.6566C66.8396 54.1059 67.281 54.3305 67.9602 54.3305C68.6393 54.3305 69.0754 54.1059 69.2772 53.6566C69.4071 53.403 69.4729 53.0003 69.4729 52.4492V47.524H71.176V52.4536C71.176 53.3056 71.0436 53.9699 70.7794 54.4446C70.2872 55.315 69.3474 55.7502 67.9602 55.7502C66.5729 55.7502 65.6323 55.315 65.1356 54.4446C64.8715 53.9699 64.739 53.3056 64.739 52.4536V47.524H64.7399Z" fill="#1E120C"/>
<path d="M74.4316 47.524H76.1874L79.3717 53.1161V47.524H80.9327V55.544H79.2577L75.9926 49.8537V55.544H74.4316V47.524Z" fill="#1E120C"/>
<path d="M85.7056 47.524H84.041V55.544H85.7056V47.524Z" fill="#1E120C"/>
<path d="M93.6371 47.524H95.3788L92.6438 55.544H91.0609L88.3486 47.524H90.1386L91.8804 53.6127L93.6371 47.524Z" fill="#1E120C"/>
<path d="M103.979 48.9438H99.7357V50.6469H103.632V52.0403H99.7357V54.1024H104.176V55.544H98.0984V47.524H103.979V48.9438Z" fill="#1E120C"/>
<path d="M112.292 47.7311C112.587 47.8584 112.838 48.0453 113.042 48.2918C113.212 48.4954 113.347 48.72 113.446 48.9666C113.545 49.2132 113.594 49.4939 113.594 49.8098C113.594 50.1906 113.498 50.5653 113.305 50.9338C113.113 51.3015 112.796 51.5621 112.353 51.7148C112.723 51.864 112.985 52.0746 113.14 52.3483C113.294 52.6221 113.371 53.0406 113.371 53.6022V54.141C113.371 54.5077 113.386 54.7561 113.415 54.8868C113.46 55.0939 113.563 55.2457 113.724 55.344V55.5449H111.874C111.823 55.3677 111.787 55.2237 111.765 55.1149C111.723 54.8903 111.699 54.6595 111.695 54.4244L111.684 53.6785C111.677 53.167 111.588 52.8265 111.419 52.6554C111.249 52.4852 110.931 52.3992 110.464 52.3992H108.828V55.544H107.19V47.524H111.027C111.575 47.5346 111.996 47.6039 112.292 47.7311ZM108.828 48.9166V51.0716H110.631C110.99 51.0716 111.258 51.0286 111.437 50.9409C111.755 50.7882 111.913 50.4872 111.913 50.038C111.913 49.5519 111.759 49.2254 111.453 49.0587C111.281 48.964 111.022 48.9175 110.678 48.9175H108.828V48.9166Z" fill="#1E120C"/>
<path d="M118.078 53.0687C118.13 53.4355 118.233 53.7092 118.383 53.89C118.661 54.2199 119.137 54.3849 119.811 54.3849C120.216 54.3849 120.543 54.341 120.795 54.2541C121.273 54.0874 121.512 53.7768 121.512 53.324C121.512 53.059 121.394 52.8546 121.16 52.7089C120.926 52.5676 120.554 52.4422 120.046 52.3334L119.178 52.143C118.325 51.9543 117.738 51.7499 117.419 51.5279C116.879 51.1576 116.608 50.5793 116.608 49.7922C116.608 49.0745 116.872 48.4778 117.402 48.0022C117.931 47.5266 118.707 47.2897 119.731 47.2897C120.587 47.2897 121.317 47.5135 121.92 47.9619C122.524 48.4102 122.841 49.0604 122.871 49.9125H121.26C121.231 49.4299 121.014 49.0876 120.613 48.8841C120.345 48.7498 120.012 48.6831 119.614 48.6831C119.172 48.6831 118.819 48.77 118.555 48.9446C118.29 49.1184 118.159 49.3614 118.159 49.6738C118.159 49.9607 118.289 50.1739 118.548 50.3161C118.716 50.4109 119.071 50.5214 119.614 50.6478L121.021 50.9794C121.638 51.1242 122.1 51.3181 122.408 51.5612C122.887 51.9385 123.126 52.4843 123.126 53.1985C123.126 53.9128 122.843 54.5402 122.276 55.0237C121.709 55.508 120.91 55.7502 119.875 55.7502C118.841 55.7502 117.989 55.5115 117.383 55.0351C116.779 54.5586 116.476 53.9023 116.476 53.0678H118.075L118.078 53.0687Z" fill="#1E120C"/>
<path d="M127.503 47.524H125.839V55.544H127.503V47.524Z" fill="#1E120C"/>
<path d="M136.57 47.524V48.9438H134.17V55.544H132.484V48.9438H130.074V47.524H136.57Z" fill="#1E120C"/>
<path d="M141.513 47.524H143.409L146.247 55.544H144.43L143.901 53.8952H140.947L140.403 55.544H138.65L141.512 47.524H141.513ZM141.403 52.5132H143.457L142.443 49.357L141.403 52.5132ZM144.307 45.2549L142.654 46.8817H141.533L142.578 45.2549H144.307Z" fill="#1E120C"/>
<path d="M154.079 47.7311C154.374 47.8584 154.625 48.0453 154.829 48.2918C154.999 48.4954 155.134 48.72 155.233 48.9666C155.332 49.2132 155.381 49.4939 155.381 49.8098C155.381 50.1906 155.285 50.5653 155.093 50.9338C154.901 51.3015 154.583 51.5621 154.141 51.7148C154.511 51.864 154.773 52.0746 154.927 52.3483C155.082 52.6221 155.159 53.0406 155.159 53.6022V54.141C155.159 54.5077 155.174 54.7561 155.203 54.8868C155.248 55.0939 155.35 55.2457 155.513 55.344V55.5449H153.663C153.612 55.3677 153.576 55.2237 153.554 55.1149C153.511 54.8903 153.488 54.6595 153.484 54.4244L153.473 53.6785C153.466 53.167 153.377 52.8265 153.208 52.6554C153.037 52.4852 152.72 52.3992 152.253 52.3992H150.616V55.544H148.978V47.524H152.815C153.363 47.5346 153.785 47.6039 154.081 47.7311M150.615 48.9166V51.0716H152.418C152.777 51.0716 153.045 51.0286 153.224 50.9409C153.542 50.7882 153.7 50.4872 153.7 50.038C153.7 49.5519 153.546 49.2254 153.24 49.0587C153.068 48.964 152.809 48.9175 152.465 48.9175H150.615V48.9166Z" fill="#1E120C"/>
<path d="M160.186 47.524H158.522V55.544H160.186V47.524Z" fill="#1E120C"/>
<path d="M169.6 54.8315C168.995 55.4553 168.118 55.7668 166.972 55.7668C165.826 55.7668 164.95 55.4553 164.344 54.8315C163.532 54.0663 163.125 52.9633 163.125 51.5234C163.125 50.0835 163.532 48.9516 164.344 48.2154C164.95 47.5915 165.826 47.2792 166.972 47.2792C168.118 47.2792 168.994 47.5915 169.6 48.2154C170.409 48.9516 170.814 50.0546 170.814 51.5234C170.814 52.9923 170.409 54.0663 169.6 54.8315ZM168.553 53.6127C168.943 53.123 169.138 52.4263 169.138 51.5234C169.138 50.6205 168.943 49.9282 168.553 49.4368C168.162 48.9455 167.636 48.6998 166.972 48.6998C166.309 48.6998 165.778 48.9446 165.383 49.4342C164.987 49.9238 164.79 50.6205 164.79 51.5234C164.79 52.4263 164.987 53.123 165.383 53.6127C165.779 54.1023 166.308 54.3471 166.972 54.3471C167.637 54.3471 168.162 54.1023 168.553 53.6127Z" fill="#1E120C"/>
<path fill-rule="evenodd" clip-rule="evenodd" d="M146.694 29.6037L152.366 15.3152L158.067 29.6037H146.694ZM154.236 2.54815L143.161 30.0609C143.048 27.7777 142.385 25.8772 141.156 24.367C139.806 22.7043 137.015 20.9643 132.782 19.1488C130.122 18.0011 128.304 16.8911 127.334 15.8224C126.364 14.7519 125.882 13.4515 125.882 11.9212C125.882 9.99252 126.472 8.42976 127.655 7.23378C128.836 6.03869 130.352 5.44114 132.2 5.44114C133.935 5.44114 135.429 5.92549 136.689 6.89333C137.949 7.86117 138.894 9.24317 139.524 11.0437L142.058 9.34846C141.102 7.15745 139.635 5.46571 137.656 4.27412C135.679 3.08165 133.37 2.48586 130.731 2.48586C127.214 2.48586 124.345 3.55197 122.128 5.68595C119.91 7.81993 118.8 10.5523 118.8 13.8797C118.8 16.312 119.447 18.3214 120.742 19.9096C122.035 21.4986 124.224 22.9236 127.309 24.1854L127.395 24.2161C133.077 26.5651 135.92 29.3563 135.92 32.5827C135.92 34.6087 135.279 36.2654 134.004 37.5553C132.726 38.8451 131.067 39.4883 129.028 39.4883C127.522 39.4883 126.116 39.0408 124.81 38.1396C123.506 37.2402 122.433 35.9881 121.595 34.3806L118.751 36.3891C120.167 38.5178 121.831 40.0902 123.744 41.1063C125.658 42.1207 127.931 42.6287 130.569 42.6287C134.097 42.6287 137.027 41.5758 139.367 39.4857L138.164 42.4734H141.64L145.675 32.0518H159.152L163.218 42.4734H170.932L154.236 2.54815ZM72.3787 29.6037L78.0471 15.3152L83.7497 29.6037H72.3787ZM102.285 23.1298H118.364V20.1193H102.285V5.51397H119.582V2.50253H94.854V38.2704L79.917 2.54815L72.8429 20.1193H56.3028V5.51397H74.2381V2.50253H48.8743V42.4734H56.3028V22.9368H71.7101L63.8428 42.4734H67.3184L71.3539 32.0518H84.8308L88.896 42.4734H119.583V39.4628H102.286V23.129L102.285 23.1298Z" fill="#1E120C"/>
<path d="M42.5799 2.4516H2.46606V42.5646H42.5799V2.4516Z" fill="#1E120C"/>
<path fill-rule="evenodd" clip-rule="evenodd" d="M22.5847 41.8662L3.16479 22.4436L15.73 10.0039L21.5721 15.7162L14.8438 22.4436L28.4259 36.0276L22.5847 41.8662Z" fill="#178EC8"/>
<path fill-rule="evenodd" clip-rule="evenodd" d="M22.5843 16.7314L28.4256 22.4445L22.5843 28.2831L16.7466 22.4445L22.5843 16.7314Z" fill="#BBDDED"/>
<path fill-rule="evenodd" clip-rule="evenodd" d="M29.3118 35.137L23.5987 29.3001L30.3288 22.4437L16.7466 8.98958L22.458 3.15097L41.8814 22.4437L29.3118 35.137Z" fill="white"/>
</g>
</g>
<defs>
<clipPath id="clip0_17_1229">
<rect width="172.84" height="58" fill="white"/>
</clipPath>
</defs>
</svg>
